<?xml version="1.0" encoding="utf-8"?>
<!-- Generator: Adobe Illustrator 24.3.0, SVG Export Plug-In . SVG Version: 6.00 Build 0)  -->
<svg version="1.1" id="OBJECTS" xmlns="http://www.w3.org/2000/svg" xmlns:xlink="http://www.w3.org/1999/xlink" x="0px" y="0px"
	 viewBox="0 0 500 500" style="enable-background:new 0 0 500 500;" xml:space="preserve">
<style type="text/css">
	.st0{fill:#CCC3BC;}
	.st1{fill:#F2E2E5;}
	.st2{fill:#E0D3D5;}
	.st3{fill:#CCBEC1;}
	.st4{fill:#E8E2DD;}
	.st5{fill:#0A6C8E;}
	.st6{fill:#EEE6DE;}
	.st7{fill:#EFD5BF;}
	.st8{opacity:0.58;}
	.st9{fill:#E8D3C1;}
	.st10{fill:#9E6718;}
	.st11{fill:#FFD773;}
	.st12{fill:#87510A;}
	.st13{opacity:0.46;fill:#FFFFFF;}
	.st14{fill:#EE6D4A;}
	.st15{fill:#007F7C;}
	.st16{fill:#00AAAC;}
	.st17{fill:#4CEDE5;}
	.st18{fill:#00C1BC;}
	.st19{fill:#167BA8;}
	.st20{fill:#3989B4;}
	.st21{fill:#0A759B;}
	.st22{fill:#3C9CC6;}
	.st23{fill:#B6E2FF;}
	.st24{fill:#003E60;}
	.st25{fill:#E0512F;}
	.st26{fill:#F48369;}
	.st27{fill:#F9A0A0;}
	.st28{fill:#CC3A1D;}
	.st29{fill:#FFBC00;}
	.st30{fill:#F7A500;}
	.st31{opacity:0.37;fill:#FFFFFF;}
	.st32{fill:#CC8200;}
	.st33{fill:#6D3E06;}
	.st34{fill:#EADBCE;}
	.st35{fill:#E5D1C3;}
	.st36{fill:#D6B8A1;}
	.st37{fill:#DBC2AD;}
	.st38{fill:#C4C4C3;}
	.st39{fill:url(#SVGID_1_);}
	.st40{opacity:0.5;clip-path:url(#SVGID_3_);fill:url(#SVGID_4_);}
	.st41{opacity:0.5;clip-path:url(#SVGID_3_);fill:url(#SVGID_5_);}
	.st42{opacity:0.4;fill:#E9F8FF;}
	.st43{font-family:'Montserrat-Regular';}
	.st44{font-size:32.7129px;}
	.st45{font-family:'Montserrat-Bold';}
	.st46{font-size:43.737px;}
</style>
<g>
	<g>
		<g>
			<g>
				<g>
					<path class="st0" d="M383,226.4l-0.7-0.8c1.8-1.5,2.9-2.4,2.9-2.4l0.6,0.9C385.9,224.1,384.8,224.9,383,226.4z"/>
				</g>
				<g>
					<path class="st0" d="M368.7,383.7l0-1.1c2.5-0.1,5-0.2,7.4-0.3l0.1,1.1C373.7,383.5,371.2,383.7,368.7,383.7z M380.3,383.2
						l-0.1-1.1c2.5-0.2,4.9-0.3,7.3-0.5l0.1,1.1C385.3,382.8,382.8,383,380.3,383.2z M391.9,382.3l-0.1-1.1c2.5-0.2,4.9-0.5,7.3-0.8
						l0.1,1.1C396.9,381.7,394.4,382,391.9,382.3z M403.4,380.9l-0.2-1.1c2.5-0.4,4.9-0.7,7.3-1.2l0.2,1.1
						C408.4,380.1,405.9,380.5,403.4,380.9z M414.9,378.9l-0.2-1c2.5-0.5,4.9-1,7.2-1.6l0.3,1C419.8,377.9,417.4,378.4,414.9,378.9z
						 M426.2,376.3l-0.3-1c2.4-0.7,4.8-1.4,7-2.1l0.3,1C431,374.8,428.7,375.6,426.2,376.3z M437.3,372.7l-0.4-1
						c2.4-0.9,4.6-1.9,6.7-2.9l0.5,1C441.9,370.8,439.6,371.7,437.3,372.7z M447.8,367.8l-0.5-0.9c2.2-1.2,4.3-2.5,6.2-3.9l0.6,0.9
						C452.2,365.2,450.1,366.5,447.8,367.8z M457.5,361.2l-0.7-0.8c1.9-1.6,3.6-3.4,5.1-5.2l0.8,0.7
						C461.2,357.8,459.4,359.5,457.5,361.2z M465.3,352.5l-0.9-0.6c1.3-2,2.5-4.2,3.4-6.4l1,0.4
						C467.8,348.2,466.7,350.4,465.3,352.5z M470.1,341.8l-1-0.3c0.6-2.3,1-4.7,1.2-7.2l1.1,0.1C471.1,337,470.7,339.5,470.1,341.8z
						 M470.4,330.2c0-0.9,0-1.9-0.1-2.9c-0.1-1.5-0.3-3-0.5-4.4l1.1-0.2c0.2,1.5,0.4,3,0.5,4.5c0.1,1,0.1,2,0.1,2.9L470.4,330.2z
						 M469,318.9c-0.6-2.4-1.5-4.7-2.5-6.8l1-0.5c1.1,2.2,1.9,4.5,2.5,7L469,318.9z M464.5,308.4c-1.3-2-2.9-3.9-4.6-5.6l0.7-0.8
						c1.8,1.7,3.4,3.7,4.7,5.8L464.5,308.4z M456.8,300.1c-1.9-1.4-4-2.7-6.2-3.7l0.5-1c2.3,1.1,4.5,2.4,6.4,3.9L456.8,300.1z
						 M446.7,294.8c-2.2-0.8-4.6-1.4-7-1.9l0.2-1c2.5,0.5,4.9,1.2,7.2,2L446.7,294.8z M395.5,294.4c-0.6,0-1.3,0-1.9,0l0-1.1
						c2.3,0.1,4.8,0,7.3-0.2l0.1,1.1C399.2,294.3,397.3,294.4,395.5,294.4z M389.4,294.1c-2.6-0.2-5-0.7-7.3-1.2l0.3-1
						c2.3,0.6,4.7,1,7.2,1.2L389.4,294.1z M405.3,293.7l-0.1-1.1c1.2-0.2,2.5-0.3,3.8-0.6c1.2-0.2,2.4-0.4,3.5-0.5l0.1,1.1
						c-1.1,0.2-2.3,0.3-3.5,0.5C407.8,293.4,406.5,293.6,405.3,293.7z M435.6,292.2c-2.3-0.3-4.8-0.5-7.3-0.5l0-1.1
						c2.6,0.1,5,0.2,7.4,0.5L435.6,292.2z M416.8,292.1l-0.1-1.1c2.5-0.3,5-0.4,7.4-0.5l0,1.1C421.7,291.7,419.3,291.9,416.8,292.1z
						 M377.9,291.6c-2.4-0.9-4.7-1.9-6.8-3.2l0.6-0.9c2,1.2,4.2,2.3,6.6,3.1L377.9,291.6z M367.7,285.9c-2-1.7-3.7-3.5-5-5.6
						l0.9-0.6c1.3,2,2.9,3.8,4.8,5.3L367.7,285.9z M360.6,276.6c-1-2.3-1.6-4.7-1.8-7.3l1.1-0.1c0.2,2.4,0.8,4.8,1.7,7L360.6,276.6z
						 M359.9,265.1l-1.1-0.1c0.2-2,0.5-4,1.1-6c0.1-0.4,0.3-0.9,0.4-1.3l1,0.3c-0.1,0.4-0.3,0.8-0.4,1.3
						C360.4,261.2,360,263.1,359.9,265.1z M362.7,254l-1-0.4c0.9-2.2,2-4.5,3.2-6.7l0.9,0.5C364.7,249.6,363.6,251.8,362.7,254z
						 M368,243.8l-0.9-0.6c1.3-2,2.7-4.1,4.3-6.1l0.8,0.7C370.7,239.8,369.3,241.8,368,243.8z M374.9,234.6l-0.8-0.7
						c1.6-1.9,3.3-3.7,5.1-5.4l0.7,0.8C378.2,231,376.5,232.8,374.9,234.6z"/>
				</g>
				<g>
					<path class="st0" d="M360.5,383.9l0-1.1c1.3,0,2.5,0,3.7-0.1l0,1.1C363,383.9,361.8,383.9,360.5,383.9z"/>
				</g>
			</g>
			<g>
				<g>
					<polygon class="st1" points="385.6,212.2 365.3,198.9 452.8,181.8 					"/>
				</g>
				<g>
					<polygon class="st2" points="385.6,212.2 391.5,225.5 452.8,181.8 					"/>
				</g>
				<g>
					<polygon class="st3" points="394.3,218.4 391.5,225.5 404.6,216.8 					"/>
				</g>
				<g>
					<polygon class="st1" points="394.3,218.4 411,246.5 452.8,181.8 					"/>
				</g>
			</g>
		</g>
		<g>
			<path class="st4" d="M76.7,397.4c0,0-17.8,4.3-27,8.3c-9.2,4-21.6,3.7,76.7,20.2c98.3,16.5,104.9,19.6,101.8,24.1
				c-3.1,4.5,40.9,8.5,57.7,6.7c16.8-1.9,22.7-6.7,22.7-6.7s38.2,3.5,62.4,21.1c38.8-16.3,106.1-45.2,106.1-45.2l-53.6-13.2
				L76.7,397.4z"/>
			<g>
				<g>
					<polygon class="st5" points="351.6,395.9 342.2,394.9 339,398.7 					"/>
					<g>
						<g>
							<g>
								<g>
									<g>
										<g>
											<path class="st6" d="M314.8,173.3l-0.1,45.3c0,0-53.3,4.1-64.8,0.4c-11.6-3.7-6.1-18.9-6.1-26.2c0-7.3,0.2-25.1,2-29.3
												s10.7-2,21.5-0.7C278.1,164.3,314.8,173.3,314.8,173.3z"/>
										</g>
										<path class="st7" d="M243.8,192.8c0-7.3,0.2-25.1,2-29.3s10.7-2,21.5-0.7c10.8,1.3,47.5,10.4,47.5,10.4l0,7.6
											c-9.9-2.4-35.5-7.3-44.1-8.4c-10.8-1.3-18.4-2.8-20.3,1.4c-1.9,4.2-2.5,20.2-2.5,27.5c0,4-1.6,10.5-1.2,16
											C239.5,212.1,243.8,199.3,243.8,192.8z"/>
										<g class="st8">
											<g>
												<path class="st9" d="M244.1,164.2l70.2,12.8C314.3,177,258,164.6,244.1,164.2z"/>
												<path class="st9" d="M242.3,190.2l70.8,5.5C313.1,195.7,256.1,189.3,242.3,190.2z"/>
												<path class="st9" d="M242.3,187.3l70.8,7.3C313,194.6,256.1,186.6,242.3,187.3z"/>
												<path class="st9" d="M242.3,185.6l70.8,7.3C313,192.9,256.1,184.9,242.3,185.6z"/>
												<path class="st9" d="M242.3,183.3l70.7,8C313,191.3,256.1,182.7,242.3,183.3z"/>
												<path class="st9" d="M242.4,180.2l70.6,9.5C313,189.7,256.2,180,242.4,180.2z"/>
												<path class="st9" d="M242.4,178l70.6,9.5C313,187.5,256.2,177.8,242.4,178z"/>
												<path class="st9" d="M242.4,175.3l70.5,10.2C312.9,185.5,256.3,175.2,242.4,175.3z"/>
												<path class="st9" d="M242.4,172.8l70.5,10.2C312.9,183,256.3,172.7,242.4,172.8z"/>
												<path class="st9" d="M242.5,170.2l70.4,10.9C312.9,181.2,256.3,170.2,242.5,170.2z"/>
												<path class="st9" d="M242.2,167.3l70.4,10.9C312.6,178.3,256,167.4,242.2,167.3z"/>
											</g>
											<g>
												<path class="st9" d="M244.3,214.2l68.3-0.1C312.6,214.1,258.1,216.2,244.3,214.2z"/>
												<path class="st9" d="M242.5,192.4l70.2,4.7C312.8,197.1,256.4,194.9,242.5,192.4z"/>
												<path class="st9" d="M242.6,194.7l70.2,4C312.8,198.7,256.3,197.6,242.6,194.7z"/>
												<path class="st9" d="M242.6,197.8l70.1,2.5C312.7,200.3,256.4,200.4,242.6,197.8z"/>
												<path class="st9" d="M242.6,200l70.1,2.5C312.7,202.5,256.3,202.6,242.6,200z"/>
												<path class="st9" d="M242.6,202.7l70,1.8C312.7,204.6,256.4,205.2,242.6,202.7z"/>
												<path class="st9" d="M242.6,205.3l70,1.8C312.6,207.1,256.4,207.8,242.6,205.3z"/>
												<path class="st9" d="M242.7,207.9l69.9,1C312.6,208.9,256.4,210.2,242.7,207.9z"/>
												<path class="st9" d="M242.4,210.7l69.9,1C312.3,211.8,256.1,213,242.4,210.7z"/>
											</g>
											<path class="st9" d="M243.7,216.3l70.3,0.8C314,217.1,257.5,218.3,243.7,216.3z"/>
										</g>
										<g>
											<g>
												<path class="st10" d="M251.1,157.3c0,0-116.1,12.5-125.6,15.3c-9.5,2.8-7.3,30.9-5.7,39.7c1.6,8.7,8,11.3,14.8,11.5
													c6.8,0.3,126.6-0.2,126.6-0.2s-16.1-3-17.9-15.2c-1.7-12.3,1.1-36.7,1.6-40.8C245.5,163.4,251.1,157.3,251.1,157.3z"/>
											</g>
											<path class="st11" d="M199.9,210.6c-1.6-12,1-35.8,1.5-39.8c0.3-2.8,2.9-6.5,4.5-8.5c0,0,0,0,0,0c-2.7,0.3-5.5,0.7-8.3,1
												c-1.6,2.1-3.9,5.5-4.2,8.1c-0.5,4-3.1,27.8-1.5,39.8c0.9,7,4.1,10.7,6.6,12.6c3,0,5.9,0,8.8,0
												C204.7,222.1,200.9,218.4,199.9,210.6z"/>
											<path class="st11" d="M185.9,211c-1.6-11.7,1-34.9,1.5-38.8c0.3-2.7,2.9-6.3,4.5-8.3c-2.8,0.3-5.6,0.7-8.4,1
												c-1.6,2-3.8,5.3-4.1,7.8c-0.5,3.9-3.1,27.1-1.5,38.8c0.9,6.8,4.1,10.4,6.6,12.3c2.9,0,5.9,0,8.8,0
												C190.7,222.2,187,218.5,185.9,211z"/>
											<g>
												<path class="st12" d="M240.3,189.8c0.1-1.9,0.2-3.6,0.2-5.3c0-1.1,0.1-2.2,0.1-3.4c0.2-8.8,0.5-17.8,5.6-21.9
													c2.3-1.8,5.3-2.4,8.9-1.8c10.3,1.9,54,11.2,63.4,13.2l0,6.2c-6.2-1.3-53.7-11.5-64.3-13.4c-2.4-0.4-3.5,0.1-4,0.6
													c-3,2.4-3.2,10.4-3.4,17.5c0,1.1-0.1,2.3-0.1,3.4c-0.1,1.7-0.2,4.7-0.2,5.4c-0.1,1.6-0.9,23.5,2.8,25.9
													c4.1,2,38.2,3.7,69.2,2.2l0,6.1c-12,0.6-39.8-0.4-57.3-1.1c-7.2-0.3-12.7-0.9-14.7-2
													C238.9,217.4,239.6,203.4,240.3,189.8z"/>
											</g>
										</g>
									</g>
									<path class="st7" d="M250.1,198.1c0,0,1.1,15,1,24.7c5.8,0.6,12,0.9,12,0.9S260.4,198.8,250.1,198.1z"/>
								</g>
								<path class="st13" d="M127.1,174.3c0,0,78.6-9.2,91.4-10.4c12.9-1.2,17.2-2.4,19-1.1c1.8,1.2,1,12.6,0,14.3
									c-1,1.7-8.9,1.6-17.5,1.8c-8.7,0.2-93,4.1-95.5,4.1c-2.5,0.1-2-3.9-1.1-5.4C124.3,175.9,125.4,174.5,127.1,174.3z"/>
							</g>
						</g>
						<g>
							<path class="st14" d="M318.5,269.5c0,0,5.9,15.8,5.7,28.8c2.2-3.1,4.3-7.2,4.3-7.2l7,6.3c0,0-4.3-29-9.9-37.8
								C320.1,250.7,318.5,269.5,318.5,269.5z"/>
							<g>
								<path class="st15" d="M108,269.9l21.1,13.6h177l19.6-13.6c0,0-85.4-2.9-113.4-5C184.2,262.9,108,269.9,108,269.9z"/>
								<g>
									<g>
										<g>
											<g>
												<path class="st16" d="M108,222.7c0,0,209.3,0.9,216.9,1.8c4.7,1.5,4.4,13.5,4.7,23.8c0.3,10.3,0.6,20.1-4,21.7
													c-4.6,1.6-214.2,0.1-217.7,0c-3.4-0.1-5.8-6.8-6.2-17.5C101.5,241.6,100.3,222.7,108,222.7z"/>
											</g>
										</g>
										<path class="st17" d="M130,222.8c-2.8,0-5.3,0-7.6,0c-0.8,1.1-1.7,3.1-1.7,6.3c0,6.1,0,24.5,0,29.9
											c0,3.9,1.9,8.5,3.3,11.1c2.8,0,5.9,0,9.3,0.1c-1.8-2-4.5-5.7-5.1-10.5c-0.9-7.1-0.8-25.2-0.4-29.5
											C128.1,226.9,129,224.1,130,222.8z"/>
										<path class="st17" d="M143.3,222.9c-2.6,0-5.2,0-7.6,0c-0.8,1.1-1.7,3.1-1.7,6.2c0,6.1,0,24.5,0,29.9
											c0,4,1.9,8.6,3.4,11.2c2.9,0,6.1,0,9.3,0.1c-1.8-2-4.6-5.8-5.2-10.6c-0.9-7.1-0.8-25.2-0.4-29.5
											C141.4,226.9,142.3,224.2,143.3,222.9z"/>
										<path class="st17" d="M299.9,270.6c3.4,0,6.4-0.1,9.2-0.1c1.4-2.6,3.2-7,3.2-10.8c0-5.4,0-23.9,0-29.9
											c0-2.7-0.6-4.5-1.3-5.6c-2.3,0-4.9-0.1-7.7-0.1c0.9,1.4,1.6,3.9,1.8,6.9c0.4,4.3,0.5,22.3-0.4,29.5
											C304.2,264.9,301.7,268.5,299.9,270.6z"/>
										<path class="st17" d="M286.4,270.6c3.2,0,6.3,0,9.2,0c1.4-2.6,3.3-7.1,3.3-10.9c0-5.4,0-23.9,0-29.9
											c0-2.8-0.7-4.7-1.4-5.8c-2.4,0-5-0.1-7.7-0.1c0.9,1.4,1.7,4,1.9,7c0.4,4.3,0.5,22.3-0.4,29.5
											C290.8,264.9,288.2,268.6,286.4,270.6z"/>
									</g>
									<path class="st18" d="M108,225.9c0,0,114.2,0,150.1,0c36,0,57,0,61.9,0s6.6,2.2,7,6.1c0.4,3.9-1.2,4.6-11,4.5
										c-9.8-0.1-201.5,0-208,0C101.5,236.5,103.2,225.9,108,225.9z"/>
								</g>
							</g>
						</g>
						<g>
							<g>
								<g>
									<g>
										<g>
											<path class="st19" d="M224.1,434.4c0,0-136.6-27.2-146.8-30.3c-10.2-3.1-13.3-33.2-1.8-37
												c11.5-3.8,141.8-11.7,141.8-11.7l151.6,8.7L224.1,434.4z"/>
										</g>
										<path class="st20" d="M77.3,404.2c10.2,3.1,146.8,30.3,146.8,30.3l78.1-39.8L71.3,370.6C65.1,379.5,68.7,401.6,77.3,404.2
											z"/>
									</g>
									<g>
										<path class="st6" d="M365.2,367.8c-28.1,2.3-128.5,11.1-142.2,18.7c-15.9,8.9-10.6,43.9,2.7,44.7
											c10.8,0.7,104.4-19.2,139.5-26.8V367.8z"/>
									</g>
									<path class="st7" d="M230.4,397.4c12.7-7,99.7-15.1,134.8-18.1v-11.6c-28.1,2.3-128.5,11.1-142.2,18.7
										c-14.5,8-11.4,37.6-0.8,43.7C218.8,418.9,220.4,403,230.4,397.4z"/>
									<g>
										<path class="st21" d="M368.9,400.2c-42.8,9.3-130.2,27.7-142.4,27.7c-0.2,0-0.4,0-0.6,0c-3.5-0.2-7-5.1-8.5-12.1
											c-2.2-9.9-0.4-22.1,7.3-26.4c12.1-6.7,104.7-15.4,144.2-18.6v-6.7c-23.9,1.9-132.3,11-147.5,19.4
											c-11,6.1-13.2,21.7-10.5,33.6c2.3,10.2,7.1,16.8,13.8,17.3c0.2,0,1.2,0.1,1.5,0.1c14.5,0,109.3-20.3,142.7-27.5V400.2z"/>
									</g>
									<path class="st9" d="M225.7,392l137.8-18.8C363.5,373.2,252.1,385.4,225.7,392z"/>
									<path class="st9" d="M224.1,395.8L361.8,377C361.8,377,250.4,389.2,224.1,395.8z"/>
									<path class="st9" d="M220.5,400.2l140.2-19.7C360.7,380.5,246.9,393.5,220.5,400.2z"/>
									<path class="st9" d="M220.3,404.5l140.1-21.1C360.5,383.4,246.7,397.9,220.3,404.5z"/>
									<path class="st9" d="M220.3,408.4l140.1-22C360.5,386.4,246.7,401.8,220.3,408.4z"/>
									<path class="st9" d="M220.3,412.1L360.5,389C360.5,389,246.7,405.4,220.3,412.1z"/>
									<path class="st9" d="M221.4,414.7l139.3-22.9C360.7,391.8,247.8,408,221.4,414.7z"/>
									<path class="st9" d="M221.4,417.8l139.1-23.2C360.5,394.7,247.8,411.2,221.4,417.8z"/>
									<path class="st9" d="M223.4,421.5L361,396.6C361,396.6,249.8,414.8,223.4,421.5z"/>
									<path class="st9" d="M225.7,424.7L361.8,399C361.8,399,252.1,418.1,225.7,424.7z"/>
								</g>
								<g>
									<path class="st22" d="M73,372.5c0,0,92.5,13.6,111.8,16.4c19.3,2.8,23.9,2,23.3,10.1c-0.7,8.1-3.3,8-30.7,4.2
										C150,399.4,78.2,385.5,73,384.6C67.9,383.8,70.2,372.1,73,372.5z"/>
								</g>
								<g>
									<path class="st23" d="M160.1,418.8c-0.2,0-0.4,0-0.5,0c-24.7-4-54.5-10.3-63.1-12.1c-1.6-0.4-2.9-1.6-3.3-3.2
										c-1.2-4.9-3.3-17.1,2.6-25c0.8-1.1,2.2-1.7,3.7-1.5l62.7,7.7c1,0.1,1.8,0.6,2.4,1.4c0.5,0.8,0.7,1.8,0.5,2.7
										c-1.1,4.6-2.8,14.1-1.7,26.5c0.1,1-0.3,2-1,2.7C161.8,418.5,161,418.8,160.1,418.8z M99,377.6c-1,0-2,0.5-2.5,1.2
										c-5.6,7.6-3.6,19.5-2.4,24.3c0.3,1.3,1.4,2.4,2.7,2.7c8.5,1.8,38.3,8.1,63,12.1c0.8,0.1,1.5-0.1,2.1-0.6
										c0.6-0.5,0.9-1.3,0.8-2.1c-1.1-12.5,0.6-22.1,1.7-26.7c0.2-0.7,0-1.5-0.4-2.1c-0.4-0.6-1.1-1-1.8-1.1l-62.7-7.7
										C99.2,377.6,99.1,377.6,99,377.6z"/>
								</g>
								<g>
									<g>
										<ellipse class="st24" cx="184.7" cy="407.6" rx="7.3" ry="10.2"/>
									</g>
									<path class="st21" d="M179.2,408c0-5.6,3.3-10.2,7.3-10.2c-0.6-0.2-1.2-0.3-1.8-0.3c-4,0-7.3,4.6-7.3,10.2
										c0,5.6,3.3,10.2,7.3,10.2c0,0,0,0,0,0C181.5,416.7,179.2,412.7,179.2,408z"/>
								</g>
								<g>
									<g>
										<ellipse class="st24" cx="84.9" cy="389.1" rx="5.6" ry="7.8"/>
									</g>
									<path class="st21" d="M80.7,389.4c0-4.3,2.5-7.8,5.6-7.8c-0.4-0.2-0.9-0.3-1.4-0.3c-3.1,0-5.6,3.5-5.6,7.8
										c0,4.3,2.5,7.8,5.6,7.8c0,0,0,0,0,0C82.5,396,80.7,393,80.7,389.4z"/>
								</g>
							</g>
							<path class="st7" d="M227.1,407c0,0,1.2,16.9,1.1,27.5c3.1-0.2,12.6-1.6,12.6-1.6S238.2,407.3,227.1,407z"/>
							<path class="st14" d="M227.1,406.9c0,0,11.4,7.2,12,41.2c5.3-5.5,9-9,9-9l9.6,5.6c0,0-6.3-36-13.8-41
								C233,404.9,227.1,406.9,227.1,406.9z"/>
						</g>
						<g>
							<g>
								<g>
									<g>
										<g>
											<g>
												<g>
													<path class="st25" d="M207.6,380.5c0,0,119.3-14.5,128.1-17.7c8.8-3.2,11.5-29.4,1.5-32c-9.9-2.7-122.4-8.5-122.4-8.5
														L84,326.8L207.6,380.5z"/>
												</g>
											</g>
											<g>
												<path class="st14" d="M335.7,362.8c-8.8,3.2-128.1,17.7-128.1,17.7l-58-34.2l58.3-11.4l133.1-1.4
													C346.3,340.9,343.2,360.1,335.7,362.8z"/>
											</g>
										</g>
										<g>
											<path class="st6" d="M87.2,329.7c24.3,0.6,110.9,3.1,122.8,8.9c13.8,6.8,9.2,37.3-2.3,38.8
												c-9.3,1.2-90.1-11.3-120.5-16.1V329.7z"/>
										</g>
										<path class="st7" d="M203.6,348.5c-10.9-5.4-86.1-8-116.4-8.8v-10c24.3,0.6,110.9,3.1,122.8,8.9
											c12.5,6.2,9.9,31.9,0.7,37.7C213.6,366.4,212.2,352.8,203.6,348.5z"/>
										<g>
											<g>
												<path class="st26" d="M84,357.9c37,5.9,112.4,17.3,122.9,16.7c0.2,0,0.3,0,0.5,0c3-0.4,6-4.8,7.4-10.9
													c1.9-8.6,0.4-19.1-6.3-22.4c-10.5-5.2-90.4-8-124.5-8.7v-5.8c20.6,0.4,114.2,2.8,127.3,9.3c9.5,4.7,11.4,18.1,9.1,28.5
													c-2,9-6.8,15-12.6,15.7c-0.2,0-0.4,0-0.6,0.1c-12.5,0.7-94.3-12-123.2-16.6V357.9z"/>
											</g>
										</g>
										<g class="st8">
											<path class="st9" d="M207.6,343.6l-118.9-9.3C88.7,334.3,184.9,339.2,207.6,343.6z"/>
											<path class="st9" d="M209.1,346.8l-118.9-9.3C90.1,337.5,186.3,342.4,209.1,346.8z"/>
											<path class="st9" d="M212.1,350.4l-121-9.9C91.1,340.5,189.4,346,212.1,350.4z"/>
											<path class="st9" d="M212.3,354.1L91.3,343C91.3,343,189.5,349.7,212.3,354.1z"/>
											<path class="st9" d="M212.3,357.5l-121-11.9C91.3,345.6,189.5,353.1,212.3,357.5z"/>
											<path class="st9" d="M212.3,360.6l-121-12.9C91.3,347.8,189.5,356.2,212.3,360.6z"/>
											<path class="st9" d="M211.3,363L91.1,350.2C91.1,350.2,188.6,358.5,211.3,363z"/>
											<path class="st9" d="M211.3,365.7l-120-13C91.3,352.7,188.6,361.3,211.3,365.7z"/>
											<path class="st9" d="M209.6,368.9L90.8,354.4C90.8,354.4,186.9,364.5,209.6,368.9z"/>
											<path class="st9" d="M207.6,371.8L90.1,356.5C90.1,356.5,184.9,367.4,207.6,371.8z"/>
										</g>
									</g>
									<g>
										<path class="st26" d="M339.6,336.3c0,0-74.9,5.8-94.5,7.8c-16.9,1.7-21.7,0.5-21.1,7.4c0.6,6.9,10.2,5.5,34.2,2.9
											c26.6-2.8,76.8-7.7,81.3-8.6C343.9,344.8,342,335.8,339.6,336.3z"/>
									</g>
									<g>
										<path class="st27" d="M327.9,364.5c-0.2,0-0.3-0.1-0.4-0.3c-0.1-0.2,0.1-0.4,0.3-0.5c1.3-0.3,5.4-2.9,6-5.8
											c0.7-3,1.5-9.7,1.9-15.4c0.4-5.4-3.3-7.5-3.4-7.6c-0.2-0.1-0.3-0.4-0.2-0.5c0.1-0.2,0.3-0.3,0.5-0.1c0,0,4.3,2.5,3.9,8.4
											c-0.4,5.7-1.3,12.5-1.9,15.5c-0.7,3.1-5,6-6.6,6.3C328,364.5,327.9,364.5,327.9,364.5z"/>
									</g>
									<g>
										<path class="st27" d="M322.8,365c-0.2,0-0.3-0.1-0.4-0.3c-0.1-0.2,0.1-0.4,0.3-0.5c1.3-0.3,5.4-2.9,6-5.8
											c0.7-3,1.5-9.7,1.9-15.4c0.4-5.4-3.3-7.5-3.4-7.6c-0.2-0.1-0.3-0.4-0.2-0.5c0.1-0.2,0.3-0.3,0.5-0.1c0,0,4.3,2.5,3.9,8.4
											c-0.4,5.7-1.3,12.5-1.9,15.5c-0.7,3.1-5,6-6.6,6.3C322.8,365,322.8,365,322.8,365z"/>
									</g>
								</g>
								<path class="st28" d="M240.5,351.5c0.5,9.6-0.9,16.6-4.9,25.5c3.2-0.4,6.6-0.8,10.1-1.3c0.4-0.9,4-10,4.1-22.7
									c0.1-6.2-1.7-10.4-3.6-13.2l-9.3,0.6C238.6,343.2,240.3,346.9,240.5,351.5z"/>
								<path class="st28" d="M255.2,350.6c0.4,9.2-0.9,16.1-4.5,24.6c3.3-0.4,6.6-0.8,10-1.3c1-2.8,3.7-11,3.8-21.8
									c0.1-6.2-1.7-10.4-3.6-13.2l-9.3,0.6C253.3,342.2,255,346,255.2,350.6z"/>
							</g>
							<path class="st7" d="M202.9,352.7c0,0-1.1,17.7-1,27.5c-2.9-0.2-12-1.1-12-1.1S192.5,353,202.9,352.7z"/>
							<path class="st29" d="M202.9,352.7c0,0-10.6,7.9-11.2,39.6c-5-5.1-8.4-8.4-8.4-8.4l-9,5.2c0,0,5.9-33.6,12.8-38.3
								C197.4,352,202.9,352.7,202.9,352.7z"/>
						</g>
						<g>
							<g>
								<g>
									<path class="st6" d="M123.8,274.9v45.4c0,0,52.6,6.3,64.1,3c11.4-3.2,6.1-18.8,6.1-26.1c0-7.3-0.2-25.2-2-29.4
										c-1.8-4.3-10.5-2.4-21.2-1.5C160.1,267.3,123.8,274.9,123.8,274.9z"/>
								</g>
								<path class="st7" d="M194,297.3c0-7.3-0.2-25.2-2-29.4c-1.8-4.3-10.5-2.4-21.2-1.5c-10.7,0.9-47,8.5-47,8.5v7.6
									c9.8-2,35.1-5.9,43.6-6.6c10.7-0.9,18.2-2,20,2.2c1.8,4.3,2.4,20.4,2.4,27.7c0,4,1.6,10.6,1.2,16.1
									C198.2,316.9,194,303.9,194,297.3z"/>
								<g class="st8">
									<g>
										<path class="st9" d="M193.7,268.6l-69.4,10C124.4,278.6,180,268.5,193.7,268.6z"/>
										<path class="st9" d="M195.5,294.8l-70,2.7C125.6,297.4,181.9,293.3,195.5,294.8z"/>
										<path class="st9" d="M195.5,291.9l-69.9,4.5C125.6,296.4,181.9,290.6,195.5,291.9z"/>
										<path class="st9" d="M195.5,290.1l-69.9,4.5C125.6,294.6,181.9,288.9,195.5,290.1z"/>
										<path class="st9" d="M195.5,287.8l-69.9,5.2C125.6,293,181.8,286.7,195.5,287.8z"/>
										<path class="st9" d="M195.4,284.7l-69.8,6.7C125.7,291.4,181.8,283.9,195.4,284.7z"/>
										<path class="st9" d="M195.4,282.5l-69.8,6.7C125.7,289.2,181.8,281.7,195.4,282.5z"/>
										<path class="st9" d="M195.4,279.8l-69.7,7.4C125.7,287.2,181.7,279.1,195.4,279.8z"/>
										<path class="st9" d="M195.4,277.3l-69.7,7.4C125.7,284.7,181.7,276.6,195.4,277.3z"/>
										<path class="st9" d="M195.4,274.7l-69.6,8.1C125.8,282.8,181.7,274.2,195.4,274.7z"/>
										<path class="st9" d="M195.7,271.8l-69.6,8.1C126.1,280,182,271.3,195.7,271.8z"/>
									</g>
									<g>
										<path class="st9" d="M193.5,318.8l-68.8-3.7C124.6,315.1,179.9,320.2,193.5,318.8z"/>
										<path class="st9" d="M195.2,296.9l-69.4,1.9C125.8,298.9,181.6,298.9,195.2,296.9z"/>
										<path class="st9" d="M195.2,299.3l-69.4,1.2C125.9,300.5,181.7,301.6,195.2,299.3z"/>
										<path class="st9" d="M195.2,302.4l-69.2-0.3C125.9,302.1,181.6,304.4,195.2,302.4z"/>
										<path class="st9" d="M195.2,304.6l-69.2-0.3C125.9,304.3,181.6,306.7,195.2,304.6z"/>
										<path class="st9" d="M195.1,307.3l-69.2-1C126,306.3,181.6,309.3,195.1,307.3z"/>
										<path class="st9" d="M195.1,309.9l-69.2-1C126,308.9,181.6,311.8,195.1,309.9z"/>
										<path class="st9" d="M195.1,312.5l-69.1-1.8C126,310.7,181.5,314.3,195.1,312.5z"/>
										<path class="st9" d="M195.4,315.3l-69.1-1.8C126.3,313.6,181.8,317.1,195.4,315.3z"/>
									</g>
									<path class="st9" d="M194,320.9l-70-3.2C124,317.7,180.4,322.4,194,320.9z"/>
								</g>
								<g>
									<g>
										<path class="st29" d="M186.8,261.4c0,0,114.7,17.2,124.1,20.4c9.4,3.2,8.1,27.3,6.5,35.9c-1.6,8.7-7.9,11-14.6,11
											c-6.7,0-118.8-1.4-118.8-1.4s8.8-2.1,10.5-14.4c1.7-12.2-1-36.8-1.6-41C192.4,267.8,186.8,261.4,186.8,261.4z"/>
									</g>
									<path class="st11" d="M235.9,276.5c0.5,3.9,3,26.7,1.5,38.1c-1.4,9.8-7.6,12.6-9.3,13.2c3.2,0,6.4,0.1,9.6,0.1
										c2.5-1.4,6.6-4.8,7.6-12.5c1.6-11.4-1-34.2-1.5-38.1c-0.3-2.5-2.6-5.9-4.1-7.9c-2.8-0.4-5.5-0.9-8.2-1.3
										C233.1,270.2,235.6,273.9,235.9,276.5z"/>
									<path class="st11" d="M249.7,278.5c0.5,3.8,3,26.1,1.5,37.1c-1.2,8.1-5.8,11.3-8.3,12.5c3.1,0,6.2,0.1,9.3,0.1
										c2.5-1.6,5.9-5,6.9-11.7c1.6-11.1-1-33.4-1.5-37.1c-0.3-2.4-2.5-5.6-4.1-7.6c-2.8-0.4-5.5-0.9-8.3-1.3
										C246.8,272.4,249.3,275.9,249.7,278.5z"/>
									<g>
										<path class="st30" d="M197.5,294.5c-0.1-1.9-0.2-3.7-0.2-5.3c0-1.1-0.1-2.2-0.1-3.4c-0.2-8.8-0.4-17.9-5.5-22.2
											c-2.3-1.9-5.2-2.7-8.8-2.1c-10.2,1.5-53.4,9.1-62.7,10.7v6.2c6.1-1.1,53.1-9.3,63.6-10.8c2.4-0.3,3.4,0.3,4,0.8
											c3,2.5,3.2,10.6,3.3,17.7c0,1.2,0.1,2.3,0.1,3.4c0.1,1.7,0.2,4.7,0.2,5.4c0,1.6,0.8,23.6-2.8,25.9
											c-4.1,1.9-37.8,0.1-68.4-2.7v6.1c11.9,1.1,39.3,3.4,56.7,3.4c7.1,0,12.6-0.4,14.5-1.4
											C198.8,322.2,198.2,308.1,197.5,294.5z"/>
									</g>
								</g>
							</g>
							<path class="st7" d="M187.8,302.3c0,0-1.1,15.1-1,24.8c-5.7,0.4-11.8,0.4-11.8,0.4S177.6,302.6,187.8,302.3z"/>
							<path class="st20" d="M187.8,302.3c0,0-11.1,9.1-11.7,40.5c-4.9-4.3-8.2-7-8.2-7l-8.8,6.5c0,0,6.2-34.3,13-40
								C182.1,301.9,187.8,302.3,187.8,302.3z"/>
						</g>
						<g>
							<path class="st31" d="M198.7,266.5c0,0,104,16.3,107.7,17c3.8,0.7,4.4,4.4,5.2,7.3c0.8,2.8-2.3,1.7-8.5,1.1
								c-6.3-0.6-93.1-11.6-97.8-12.3s-5.4-2.4-6.2-4.9c-0.8-2.6-1.9-6.4-1.8-7.2C197.5,266.7,197.9,266.4,198.7,266.5z"/>
						</g>
						<g>
							<path class="st32" d="M205.3,327.3c-0.2,0-0.3-0.1-0.4-0.2c-0.2-0.2-0.1-0.6,0.1-0.7c0.9-0.6,4.4-6.5,4.7-12.8
								c0.3-6.2,0.3-20.1,0-31.8c-0.3-11.3-4-15.5-4-15.5c-0.2-0.2-0.2-0.6,0-0.8c0.2-0.2,0.6-0.2,0.8,0c0.2,0.2,4,4.4,4.3,16.2
								c0.3,11.7,0.3,25.7,0,31.8c-0.3,6.3-3.8,12.7-5.2,13.6C205.5,327.3,205.4,327.3,205.3,327.3z"/>
						</g>
						<g>
							<path class="st32" d="M211.3,327.9c-0.2,0-0.3-0.1-0.4-0.2c-0.2-0.2-0.1-0.6,0.1-0.7c0.9-0.6,4.4-6.5,4.7-12.8
								c0.3-6.2,0.3-20.1,0-31.8c-0.3-11.3-4-15.5-4-15.5c-0.2-0.2-0.2-0.6,0-0.8c0.2-0.2,0.6-0.2,0.8,0c0.2,0.2,4,4.4,4.3,16.2
								c0.3,11.7,0.3,25.7,0,31.8c-0.3,6.3-3.8,12.7-5.2,13.6C211.5,327.9,211.4,327.9,211.3,327.9z"/>
						</g>
						<path class="st29" d="M250.1,198.1c0,0,11.2,9.6,11.8,40.8c4.9-4.1,8.3-6.7,8.3-6.7l8.9,6.8c0,0-6.2-34.5-13.1-40.4
							C255.8,197.8,250.1,198.1,250.1,198.1z"/>
					</g>
				</g>
				<g>
					<g>
						<g>
							<g>
								<path class="st12" d="M221.1,352c0,0,28.6,18.6,44.4,68.4c-3.5,8.1,1.6,18.5,12.7,14.2c7.7-1.9,50.4-13.3,80.1,25.2
									c43.9-17.7,94-34.3,94-34.3s1.9-5.1,1.5-5.4c-1.4-1-7.3,2.6-10.2,1.2c-17.1-7.7-55.3-23.1-78.6-17.9c-9.1,1.9-14,0.5-14-4.5
									s-15.5-47.2-27.4-58.1c-29.4,0.3-75.8,9.3-94.1,9.6c-0.6,0-4.9-4.2-6.1-4C222.6,346.6,221.1,352,221.1,352z"/>
								<path class="st33" d="M223.4,346.5c0,0,31.1,22.3,47,72c-3.5,8.1-0.1,15.3,11.1,11.1c7.7-1.9,50-10,79,25.3
									c43.9-17.7,93.3-34.7,93.3-34.7s-53.9-28-84.7-21.2c-9.1,1.9-14,0.5-14-4.5c0-5-15.5-47.2-27.4-58.1
									C291,336.7,223.4,346.5,223.4,346.5z"/>
							</g>
							<g>
								<path class="st34" d="M328.8,328.8l-90,6c-3.5,11,36.1,64.2,36.1,64.2s2.1,7.2,7.5,18l78-22.6
									C352.1,359.2,328.8,328.8,328.8,328.8z"/>
							</g>
							<path class="st35" d="M360.5,394.7c0-0.1,0-0.2-0.1-0.2l-78,22.6c0.1,0.3,0.3,0.6,0.4,0.8c42.1-7.9,80.6,21,80.6,21
								s19.3-6.2,93-34.3C437.6,395.3,376.4,390.8,360.5,394.7z"/>
							<path class="st36" d="M365.3,432.4L365.3,432.4c0,0-32.7-26.8-80.6-16.3c-5.6-24-30.7-74.5-45.9-81.4
								c-4.8,3.8-10.7,8.1-10.7,8.1s34.4,32,44.5,75c7.6-0.3,11.4,8.1,11.4,8.1s25.9-5.5,46,0.8c20.1,6.3,32.8,23.3,32.8,23.3
								l0.3-0.1l92.3-33.2l1.1-12.2L365.3,432.4z"/>
							<path class="st37" d="M365.2,432.4c0,0-32.7-26.8-80.6-16.3c-5.6-24-30.7-74.5-45.9-81.4c-4.8,3.8-10.7,8.1-10.7,8.1
								s34.4,32,44.5,75c7.6-0.3,11.4,8.1,11.4,8.1s25.9-5.5,46,0.8c20.1,6.3,32.8,23.3,32.8,23.3l0.3-0.1L365.2,432.4L365.2,432.4z
								"/>
						</g>
						<path class="st34" d="M284.7,417c0,0,34.5-14.5,80.6,7.7c49-13.6,87.4-25.7,87.4-25.7s-51.9-14.1-92.2-4.3
							C320.2,404.4,288.7,414.3,284.7,417z"/>
						<path class="st6" d="M284.7,416.2c0,0,2.8-47.7-32.5-88c22.9-2.7,88.5-3.9,88.5-3.9s21.5,38.7,19.8,70.3
							C325,403.7,284.7,416.2,284.7,416.2z"/>
					</g>
					<path class="st29" d="M367.1,393.3c0,0-61.6,16.5-74.9,21.5c-13.2,5-12.3,36.5-12.3,36.5l-5.7-8.2l-5.3,5c0,0,2.3-26.1,15-35.1
						C296.6,404,355.2,393.2,367.1,393.3z"/>
					<path class="st6" d="M349.4,385.9c-8.7,0-16.8,0.7-23.8,1.9c0.5-6.3-0.2-13.7-2.3-21.4c-5.2-19.2-17-32.7-26.3-30.1
						c-9.3,2.5-12.7,20.1-7.5,39.3c3.6,13.3,10.4,23.8,17.3,28.2c6.9,4.7,23.3,8.1,42.6,8.1c25.4,0,46-5.8,46-13
						S374.8,385.9,349.4,385.9z"/>
					<g>
						<g>
							<g>
								<g>
									<g>
										<path class="st24" d="M394.9,321.4c17.3,23.8,12.1,57.1-11.6,74.4c-23.8,17.3-57.1,12.1-74.4-11.6
											c-17.3-23.8-12.1-57.1,11.6-74.4C344.3,292.4,377.6,297.6,394.9,321.4z"/>
									</g>
									<g>
										<path class="st38" d="M358.2,383.7c0-0.1-0.1-0.2-0.1-0.3c0,0,0,0-0.1,0L358.2,383.7z"/>
									</g>
									<g>
										<path class="st20" d="M308.7,324.5c0.4-0.4,0.9-0.4,1.3-0.8c1-0.8,1.4-1.8,2.2-2.8c0.4-0.6,1.8-2.4,2.6-1.9
											c0,0.3-0.5,1-0.2,1.3c0.3,0.3,0.9-0.2,1.1-0.3c0,0.6-0.1,1.3,0.1,1.8c0.8,0.1,0.9-0.9,0.9-1.4c0.1-0.7,0.2-1.2,0.6-1.8
											c0.3-0.5,0.6-0.8,0.7-1.4c0.2-0.6,0.1-1.2,0.4-1.7c0.6-1,1.4-1.8,2.2-2.7c0.4-0.5,0.9-0.8,1.3-1.3
											c0.5-0.5,0.8-1.1,1.2-1.6c0.6-0.7,1.9-2.3,3-2.1c-0.4,0.7-1.4,1.1-1.8,1.8c-0.2,0.5,0,0.6-0.5,0.9c-0.4,0.3-1,0.5-0.9,1.1
											c0.3,0,0.6-0.1,0.7,0.2c0.6,0,1-0.8,1.4-0.4c0.5,0.6-0.5,1-0.4,1.4c0.1,0.6,1-0.5,1.1-0.8c0.2-0.5,0.2-1.1,0.6-1.6
											c0.4-0.6,1.1-1,1.6-1.4c0.4-0.4,0.8-0.7,1.4-1c0.6-0.3,1.3-0.5,1.9-0.9c0.4-0.2,0.8-0.7,1.3-0.7c0,0,0.1,0.1,0.1,0.1
											c0.3-0.2,0.7-0.4,1-0.6c0.3-0.2,0.6-0.6,0.8-0.7c0.8-0.5,1.9-0.9,2.8-1.3c0.5-0.2,0.8-0.8,1.3-0.8c0.2,0,0.3,0.1,0.6,0
											c0.3-0.1,0.4-0.4,0.6-0.5c0.4-0.3,3-0.6,2.7-1.2c-0.3-0.5-3.1,0-3.6,0c-0.9,0-1.9,0.2-2.8,0.3c-5.4,1.7-10.7,4.3-15.5,7.8
											c-2.3,1.7-4.4,3.5-6.4,5.5c-1.9,2-3.6,4.1-5.3,6.4c-0.4,0.6-0.9,1.2-1.4,1.8c-0.5,0.8-1,1.6-1.5,2.4
											c-0.2,0.5-0.4,1-0.5,1.5c0.7-0.6,1.4-1.1,2.1-1.7C308,325.3,308.3,324.9,308.7,324.5z"/>
										<path class="st20" d="M337.6,311.9c-0.6-0.2-0.8,0.4-1.3,0.5c0-0.1,0-0.2,0-0.4c-0.3,0-0.6,0-0.9,0.1c0-0.1,0-0.5,0-0.6
											c0,0,0.2-0.1,0.3-0.1c0-0.1-0.1-0.2-0.1-0.2c0.3-0.2,0.2-0.3,0.3-0.7c0,0-0.1-0.2-0.2-0.2c-0.2,0.1-0.8,0.3-0.9,0.4
											c-0.2,0.1-0.6-0.1-0.6,0.4c-0.4,0.1-1.3,0.3-1.3,0.4c-0.5,0.8,0.7,0.5,0.4,1.1c-0.4-0.3-0.9-0.2-1.3-0.1
											c-0.3,0.1-0.6,0.2-0.9,0.3c0.2,0.7,0,0.6-0.3,1.1c-0.1,0.1-0.3,0.1-0.5,0.3c-0.1,0.2,0.1,0.5,0,0.7
											c-0.4,0.6-2.2,0.7-1.6,1.8c0.5-0.5,1.1,0.2,1.6-0.4c0.3,0.2,1.5-0.8,1.7-1.1c0.3-0.4,0.2-0.7,0.6-1c0.1-0.1,0.7,0,0.9-0.1
											c-0.2,0.7-1.4,1.3-1.5,2c-0.1,0.8,0.5,0.4,0.8,0.2c0.2-0.1,0.2-1.1,0.7-0.3c0.6-0.2,1.4-0.6,1.6-1.2
											c0.2,0.3,0.5,0.4,0.8,0.4c0.1-0.5,0.8-0.6,0.7-1.3c0.1,0.1,0.3,0.1,0.4,0.2c0.3-0.3,0.1-0.7-0.1-0.9
											C337.4,313,337.5,312.4,337.6,311.9z"/>
										<radialGradient id="SVGID_1_" cx="357.7824" cy="383.1616" r="0.1205" gradientUnits="userSpaceOnUse">
											<stop  offset="0" style="stop-color:#FFFFFF"/>
											<stop  offset="0.2051" style="stop-color:#E9E9F3"/>
											<stop  offset="1" style="stop-color:#9997C6"/>
										</radialGradient>
										<path class="st39" d="M357.9,383.3c0-0.1-0.1-0.2-0.1-0.3c0,0,0,0-0.1,0L357.9,383.3z"/>
										<path class="st20" d="M402,334.7c-1.7-4.7-4-9.1-7.1-13.3c-10.5-14.4-26.9-22-43.5-21.9c-0.4,0.2-0.8,0.5-1,0.8
											c-0.3,0.5-0.3,0.3,0,0.7c0.3,0.4,1.6,0.3,1.8,0.6c0.8,1.1-1.1,0.7-0.8,1.5c-0.3,0.1-1.7-0.2-0.8,0.7c-0.1,0-0.2,0-0.2,0.1
											c0.1,0.9,0.9,0.6,1.6,0.7c0.9,0.1,1.4,0.7,0.5,1.3c0.3,0.4,0.5,1.2-0.3,1.3c-0.3-0.9-0.5,0.1-0.8,0
											c-0.3-0.1-0.6-0.3-0.2-0.8c-0.5,0-1,0-1.3-0.2c0.1-0.1,0.3-0.2,0.4-0.3c-0.3,0-0.9,0.2-1.2,0c-0.4-0.4,0.1-0.6,0.4-0.7
											c-0.4-0.1-0.8-0.1-1.1-0.3c0.3-0.3,0.7-0.4,1-0.8c-0.3-0.4-1.2-0.3-1.7-0.3c-0.6,0-1.2-0.3-1.8-0.3
											c-1.4,0.2-2.5,0.6-3.3,1.6c-0.8,1.1-2,1.1-3.2,1.9c-0.8,0.5-2.1,1.7-2,2.7c0.1,0.1,0.2-0.1,0.2,0
											c-0.3,1.1,1.5,0.5,0.9-0.5c0.2,0.1,0.3,0,0.6,0.2c0.2-0.3,1.1-1.9,1.3-0.6c0.5,0,0.5-0.5,1.1-0.4c0,0.7-0.2,1.6-0.1,2.3
											c0.8,0.2,2.1-0.8,1.7-1.7c1-0.2,0.2-1.2,0.4-1.8c0.1-0.2,0.6-0.8,0.7-0.8c0.3-0.2,0.3-0.6,0.9-0.5
											c0.1,0.6-0.5,0.9-0.4,1.6c1.1,0.1,0.9,0.7,2.1,0.2c0.7-0.3,1.4-0.7,1.3,0.5c0.6,0.2,1.4-0.1,2,0.1
											c0.3,0.1,0.3,0.4,0.5,0.5c0.1,0.1,0.8,0.2,0.8,0.2c1.4,1.6-1.9,0.8-2,0.9c-0.3-0.7-1.7-0.2-1.9,0.4
											c-0.4,0.7,0.6,1.1-0.6,1.1c-0.3,0-0.5-0.2-0.9,0c-0.3,0.1-0.5,0.4-0.8,0.6c-0.3,0.1-0.8,0.1-1.1,0.2
											c-0.3,0.1-0.9,0.5-1.1,0.5c-0.6,0-1.1-0.7-1.9-0.5c-0.6,0.2-0.5,0.4-0.9,0.7c-0.4,0.3-0.8,0.1-1.1,0.3
											c-0.8,0.5-0.4,1.4-0.8,2c-0.2,0.3-0.6,0.3-0.8,0.5c-0.2,0.2-0.2,0.7-0.5,1c-0.4-0.1-0.7,0-1.1-0.2
											c-0.5,0.7-1.8-0.2-2.2,0.8c0.1,0,0.2,0,0.4,0c-0.1,0.1-0.2,0.4-0.3,0.5c1.6-0.1,0.8,1.8-0.1,2.3c-0.3-0.3-1.1,0.2-1.5,0.4
											c-0.2,0-0.2,0.3-0.4,0.3c-0.2,0-0.2-0.2-0.4-0.2c-0.5,0.1-0.8,0.2-1.1-0.1c-0.4,0.3-0.6,0.8-0.8,1.2
											c-0.3,0.6-0.3,1-0.4,1.7c-0.1,0.9-1.7,3,0.4,2.6c0.4-0.1,1-0.6,1.4-0.8c0.2-0.1,0.2-0.4,0.4-0.4c0.2-0.1,0.4,0.1,0.6,0
											c0.3-0.1,0.7-0.2,0.9-0.5c0.4-0.4,0.6-0.8,1-1.2c0.3-0.3,0.8-1,0.9-1.4c2,0.1,0.4-1.4,1.7-1.9c0.7-0.2,1,0.4,1.7,0
											c0.3-0.2,0.2-0.6,0.5-0.8c0.3-0.2,0.5-0.1,0.8-0.2c0.6-0.3,0.7-0.5,1.4-0.3c0.2,0.1,0.3,0.3,0.6,0.4
											c0.2,0.1,0.5,0,0.8,0.1c0.6,0.2,2.4,1.7,2.6,0.1c-0.8,0-2.4-0.3-2.1-1.4c1.8-0.8,2.9,0.6,4.1,1.4c0.5,0.3,1.2,0.8,1.5,1.4
											c0.3,0.7,0,1.7,1.2,1.4c0-0.2,0.2-0.5,0.2-0.6c0-0.1-0.1-0.1-0.1-0.2c0.8-0.4,0-0.5,0-0.9c0-0.2-0.3-0.1-0.2-0.5
											c0-0.2,0.6-0.1,0.7-0.4c0.2-0.6-0.8-0.6,0.1-0.9c0.5-0.2,1.1,0,0.9,0.6c0.3,0.2,0.4,0.4,0.4,0.8c0.1,0,0.2,0,0.3,0
											c0.1,0.6-0.2,1.7,0.5,2c0,0.1,0,0.3,0,0.4c0.8,0.1,1.3-0.3,2.1-0.6c0.5-0.2,1.5-0.6,2-0.5c0.4,0.1,0.3,0.5,0.8,0.5
											c0.3,0,0.6-0.6,0.8-0.7c1.2-0.6,0.6,0.3,1,1c-0.1,0-0.2,0-0.4-0.1c0.3,0.2,0.6,0.4,0.9,0.6c-0.5,0.1-0.9-0.1-1.4-0.1
											c0.3,0.1,1.3,0.3,1.3,1c0.2,0,0.4,0,0.6,0c0,0.1,0,0.2,0,0.3c-0.1,0.1-0.1,0.1-0.2,0.3c-0.1,0-0.3,0-0.4,0
											c0,0.4-0.3,0.6-0.7,0.5c0-0.1-0.1-0.2-0.1-0.3c-0.4,0.3-2.5,1.2-2.6,0.5c-0.3,0-0.4-0.2-0.7,0c-0.2-0.4-0.5-0.6-0.9-0.5
											c-0.3,0.4-0.1,0.8-0.2,1.1c-0.2,0.4-0.7,0.4-0.9,0.8c0.2,0.3,0.2,0.6,0,0.9c-0.7,0-0.5-0.7-0.9-1c-0.2-0.1-0.4,0.1-0.6,0
											c-0.2-0.1-0.7-0.4-0.9-0.4c-1.9-0.3-0.1,1.9-1.4,2.1c-0.2-0.2-3.5,1.5-3.2,0.2c-1-0.1-0.1-0.6-0.3-1
											c-0.3-0.5-0.9-0.2-1.3-0.2c-0.5,0-2.9,0.1-2.1-1.2c-0.1,0-0.2-0.1-0.4-0.1c0.2-0.8-0.2-1-0.5-1.6
											c-0.5-0.2-0.8,0.2-1.2,0.4c-0.4,0.1-1.2,0.1-1.5,0.1c-0.6,0-2.3-0.1-2.6,0.7c-1.2,0.1-1.7,0.7-2.5,1.3
											c-0.6,0.5-0.5,0.5-1.2,0.3c-0.4-0.1-1-0.8-1.3,0c-0.6-0.1-0.7,0.2-1,0.5c-0.2,0.2-0.8,0.7-0.9,0.9c-0.4,0.6-0.4,2-1.2,2.4
											c0.1,0.5-0.6,1-0.9,1.4c-0.5,0.7-0.7,0.8-1.5,1.2c0,0.5-0.8,1.2-1.1,1.6c0.1,0,0.2,0.1,0.4,0.1c-0.1,0.7-1.2,1.4-1.5,2.1
											c0.2,0,0.4,0.1,0.5,0c-0.1,0.5,0.4,1,0.1,1.5c-0.7,0-0.9,0.7-1.5,0.8c0.1,0.3-0.1,0.3,0.3,0.5c-0.2,0.4-0.6,1.2-0.5,1.7
											c0.1,0.8,0.5,0.7,0.2,1.6c-0.4,1.1-1.3,1.9-1.3,3c0.1,0,0.2,0,0.3,0c0.2,0.2,0.4,0.6,0.3,0.9c0.1,0,0.3,0,0.4,0
											c0.2,0.4,0.2,0.8-0.1,1.1c0.1,0.3,0.3,0.5,0.5,0.7c0-0.1,0.2-0.2,0.2-0.4c0.9-0.1,1.2,1.4,1.7,2c0.3,0.4,0.5,0.7,0.7,1.1
											c0.2,0.4,0.3,0.9,0.5,1.2c0.3,0.4,0.7,0.5,1,0.8c0.5,0.5,0.2,0.9,1.1,1c0.8,0.1,2.2-0.3,2.2-1.2c0.6-0.1,0.7,0.4,1.1,0.4
											c0.4,0,0.6-0.2,1-0.2c0.7,0,1.5,0.7,1.7-0.6c0.6,0,0.8-0.5,1.2-0.8c0.4-0.4,1.1-0.4,1.5-0.7c0.6-0.5,0.8-2.6,1.7-1.4
											c0,0.1,0,0.2,0,0.3c1-0.1,1.4,1.2,1.7,1.8c0.1,0.2,0.2,1.3,0.3,1.3c0.5,0.3,1.1-0.3,1.2-0.7c0.4-0.1,0.5,0.2,0.9,0.2
											c0.3-0.1,0.5-0.4,0.9-0.5c0.3-0.1,0.8,0,1.1,0.1c0.6,0.3,0.2,0.2,0.5,0.7c0.3,0.5,0.8,1.1,0.9,1.8
											c0.1,0.8-0.5,1.5-0.6,2.4c0,0.8,0.4,1.1,0.9,1.6c0.5,0.4,0.7,0.8,1.3,1.3c0.7,0.5,3.8,0.8,2.6,1.9
											c1.3,0.1,0.3,0.9,0.6,1.5c0,0,0.1,0.1,0.1,0.1c-0.3,0.6-0.4,1.4,0.6,1.6c0,0.4,0,0.7,0,1c0,0.1-0.3,0.3-0.3,0.4
											c0,0.2,0.5,0.4,0.5,0.5c0,0.7-0.2,1.1-0.7,1.7c-0.5,0.7-0.9,0.8-1.2,1.6c-0.1,0.4-0.2,0.4-0.2,0.8c0,0,0.2,1.2,0.2,1.2
											c0.2,0.5,1.3,0.9,1.9,1.1c0.8,0.3,1,0.8,1.5,1.1c0.3,0.2,0.7,0,1.1,0.1c0.4,0.1,0.6,0.3,0.9,0.4c0.9,0.2,1.6-0.1,0.8,0.9
											c-0.3,0.3-0.8,0.2-0.7,0.7c1,0.5-1.1,1.5-0.2,2.3c0.3,0.3,1,0.1,1.3,0.4c0.4,0.4,0,1.1,0.7,1.4c0,0.1,0,0.3,0,0.4
											c0.3,0.2,0.2,0.1,0.4,0.4c0.5,0,1.1,0.6,1.4,1.1c0.2,0.1,0.1,0.2,0.2,0.5c0,0.1-0.1,0.3-0.1,0.5c0.1,0.1,0.3,0.1,0.4,0.2
											c0.2,0.6,0.2,0.9,0.2,1.5c0.7,0.1,1.5,0.2,1.5,1.1c0.8,0.1,0.6-0.7,0.8-1.2c0.2-0.5,0.5-0.7,0.9-1.2
											c0.5-0.7,0.2-0.5,1.1-0.7c0.6-0.2,1.1-0.2,1.1-0.9c1.2-0.1,2.1-0.6,3.1-1.1c0.6-0.3,1-0.4,1.4-1c0.5-0.7,0.1-0.8,0.2-1.5
											c-0.9-0.3,0.1-1.4-0.9-1.6c0.3-1.1,2.2-0.4,2.4-1.4c0.6-0.2,1.1-0.3,1.6-0.9c0.5-0.6,0.6-1.1,0.3-1.6
											c-0.1-0.3-0.4-0.5-0.6-0.8c-0.1-0.3,0.1-0.3-0.3-0.7c-0.5-0.5-1.2-0.3-1.4-1c-0.2-0.9,0.9-0.8,1.5-1
											c1-0.3,0.8-0.8,1.5-1.5c0.2-0.3,0.7-0.3,0.9-0.5c0.2-0.3,0.1-0.9,0.3-1.2c0.2-0.3,0.5-0.3,0.7-0.8
											c0.1-0.3,0.1-0.5,0.2-0.8c-0.2-0.2,0.1-1.1,0-1.5c-0.1-0.7-0.5-1.2-0.3-1.9c-0.1,0-0.2-0.1-0.3-0.1c0.4-1-0.7-1.1-1.3-1.3
											c0,0,0,0,0,0c0-0.1-0.1-0.1-0.1-0.2c-0.2-0.4-0.5-0.7-0.8-1c-0.3-0.4-0.8-0.4-1-1c-0.5-0.2-2.8,0.3-1.9-1
											c0.3-0.4,1-0.2,1.4-0.4c0.6-0.3,0.5-0.3,0.7-1c0.2,0.1,0.5,0,0.7,0.1c0.3-0.6,0-1.4,0.2-1.9c0.1-0.2,0.6-0.4,0.8-0.7
											c0.3-0.4,0.3-0.4,0.5-0.8c0.3-0.6,0.4-1,1-1.5c0.6-0.5,0.7-0.7,0.8-1.6c-0.1,0-0.3,0-0.4,0c-0.1-0.5,0.4-0.7,0.5-1.2
											c1.2-0.2,0.5-1.2,0.9-1.9c0.2-0.3,0.8-0.4,0.9-0.7c0.2-0.4-0.3-0.9-0.2-1.4c1.1-0.2,1.9-1,2-2.1c-0.1,0-0.2-0.1-0.3-0.1
											c0-0.9,0.8-1.8,1-2.7c0.2-0.8,0.8-2.3,0.3-3c-0.9-0.1-0.6,1-0.9,1.4c-0.5,0.5-1.5-0.1-1.5,0.8c-0.8,0.1-1,1.2-1.8,1.5
											c-0.7,0.2-2-0.3-2,1c-0.9-0.1-3.3,1.3-3.7-0.1c0.4-0.2,2.4-1.2,0.8-1.4c0.2-0.3,0.1-0.7-0.1-1c-1.1-0.2-1.4,1.3-2-0.2
											c-0.4,0-0.7,0.1-1,0.1c0-0.9-0.2-0.9-0.7-1.5c-0.3-0.4-0.3,0-0.5-0.6c-0.1-0.4-0.1-1-0.2-1.4c-0.5-0.1-1.2-0.2-1.4-0.6
											c-0.2-0.2,0-0.6-0.2-0.8c-0.2-0.2-0.6-0.2-0.8-0.3c-0.9-0.4-1.8-0.6-2.7-1.1c0.4-1-1.2-0.7-1.6-0.9
											c-0.9-0.6-0.5-1.1,0.2-1.4c0.5-0.2,1.7,0.1,1.4-0.4c-0.4-0.8-1.2-0.2-1.9-0.3c-0.4-0.7,0.5-1.1,1.4-1.5
											c0.5,0.2,0.9,1,1.1,1.3c0.3,0.3,1,0.7,1,1.3c0.5-0.1,0.9,0.2,1.1,0.7c1.3-0.1,2.4,0.8,3.5,1.2c0.6,0.3,3.3,1.2,3.3,1.6
											c1.2,0.1,0.9,1.1,0.8,2c0.9,0-0.3,1.5,0.9,1.9c0.9,0.3,1.8,0,2.7-0.4c0.5-0.2,1.1-0.3,1.6-0.5c0.3-0.1,0.6,0,0.9-0.2
											c0.4-0.3,0.1-0.4,0.3-0.6c0.5-0.7,1.4-1.1,2.1-1.8c-0.6-0.6,0.5-1.3,0.6-1.9c-1.1,0-0.9-1.2-0.7-1.9
											c-0.2,0.1-0.5,0-0.6,0.1c0-0.3,0.9-3-0.5-1.7c0.1-0.9-0.4-0.5-0.9-0.6c-0.7-0.2-0.5,0.1-0.7-0.7c-0.2-0.6-0.5-1.9-1.4-1.7
											c-0.3,0.7-0.1,1.9-1.3,1.8c-0.4-0.1-0.4-0.5-0.8-0.6c-0.5-0.1-0.6,0.2-1.1,0c-0.6-0.3-0.9-1.2-1.3-1.6
											c-0.5-0.5-1.6-0.6-1.1-1.6c-1-0.1-0.4-1.8,0.6-1.4c0.7,0.2,0.5,1.4,1.7,1c0,0.7,0,0.8,0.4,1.2c0.3,0.3,0.7,0,1,0.6
											c0.7,0.2,1.1-0.6,1.8-0.5c0.1,0.3,1,0.9,1.3,1c0.3,0.1,1.7,0.1,2,0c0.3-0.1,0.2-0.6,0.5-0.7c0.3-0.2,0.6,0,0.8,0
											c0.6-0.1,1.6-0.6,1.3,0.6c0.5-0.1,1,0.2,1.4,0.2c0.9,0.1,0.7-0.2,1.3,0.5c-0.1,1,2.7,1.1,3.4,1c0.4,0.5,1.2,0.3,1.1,1.1
											c0.6,0.3,0.1,0.6,0.2,1.1c0.2,0.5,0.5,0.4,0.9,0.8c0.1,0.1,0.2,0.4,0.2,0.4c0,0,0.6,0.3,0.6,0.3c0.4,0.5,0.3,0.6,0.4,1.3
											c1,0.2,1.5,1.1,1.5,2c0,0.4-0.3,0.8-0.1,1.2c0.3,0.6,0.7,0.3,1,0.6c0.8,0.6,0.5,1.3,1.2,1.8v-7.3
											c-0.8-0.3,0.2-1.2-0.3-1.7c-0.3-0.4-1.5-0.4-1.9-0.8c-0.3-0.2-0.3-0.6-0.5-0.8c-0.2-0.3-0.7-0.3-0.5-0.9
											c0.1-0.3,0.6-0.2,0.8-0.5c0.2-0.4,0-0.8,0.1-1.2c0.1,0,0.3,0,0.4,0c0-0.6-0.2-1.5,0.7-1.2c-0.1,0.7,0.1,1.8,0.9,1.8
											c0.4,0.8-0.5,1.2,0.2,1.8c0.3,0.3,0.8,0,1,0.3c0.2,0.2,0.1,0.8,0.1,1c0.9,0.4,1,1.6,2.1,1.4c-0.1-0.3,0-0.5-0.3-0.7
											c0.6-0.7,0.5,0.4,0.6,0.6c0.2,0.3,0.5,0.5,0.6,0.9c0.1,0.4,0,0.9,0.1,1.3c0.1,0.4,0.4,0.5,0.3,1.1
											C399.5,333,401.3,334.6,402,334.7z M357.5,318.5c-1-1.1-0.7,0.6-1.3,0.9c-0.5,0.3-0.9-0.3-1.3-0.4c-0.4-0.1-0.8,0.1-1.2,0
											c-0.7-0.2-1.1-0.9-1.7-1.3c-0.5-0.4-0.6-0.1-0.9-0.6c-0.1-0.2,0.7-0.5-0.1-0.6c0-0.1,0-0.3,0-0.4
											c-0.6-0.1-1.7,0.6-1.8-0.1c-0.7,0-1.2,0.1-1.9,0c0.3-1.1,1.4-1.2,2.4-1.3c0.9-0.1,1.9-0.4,2.7-0.5c0.3,0,1-0.3,1.1-0.3
											c0.4,0,0.7,0.4,1.1,0.5c0.5,0.2,0.6,0.1,1.1-0.2c0.2-0.1,0.4-1,0.8-0.3l0.5,0.2c0.1,0.1,0.2,0.1,0.2,0.4
											c0.1,0,0.2,0,0.3,0c0,0.1,0.1,0.3,0.1,0.4c-0.1,0.1-0.2,0.2-0.3,0.3c0.2,0,0.3,0.2,0.5,0.2c-0.1,0.6-2.1,0.5-0.8,1.1
											c0.8,0.4,1.9-0.1,2.7,0c0,0.1,0,0.3-0.1,0.3c0.4,0,0.6,0,0.7,0.4c0.1,0,0.1,0,0.2,0C360.9,319.1,357.8,317,357.5,318.5z
											 M365.9,319.3c-1-0.5-0.8-0.9-1-1.9c-0.2-0.9-1.3-1.1-1.2-2.1c-0.6,0-1.2-0.2-1-0.9c-0.7,0.2-0.8-0.3-1.1-0.7
											c0.1-0.5,0.4-1.2-0.2-1.4c0.3-0.6,0.8-0.6,0.6-1.4c0.7,0,0.9-0.7,1.6-0.8c0-0.1,0-0.3,0-0.4c0.5,0,0.9,0,1.4,0
											c0.1,0.2-0.1,0.1-0.1,0.2l0.1,0.6c0.6,1.1-1.6,1.5-1.4,2.4c0.2,1.3,2.2,1.4,3.2,1.4c-0.1,0.4,0.1,0.8,0.4,1
											c-1.2,0.7,0.8,1.4,1.3,1.3c0,0.1,0,0.3,0,0.4c0.5,0,0.9-0.3,1.4-0.1c-0.3,1.2,1.2,0.7,0.4,2c0.5,0,0.9,0.2,1.1,0.6
											C370.1,320.8,367.4,319.9,365.9,319.3z"/>
										<path class="st20" d="M375.5,378.2c0.6,0.2,1.1,0.1,1.5-0.4c0.2-0.2,0.2-0.5,0.4-0.7c0.2-0.2,0.6-0.2,0.8-0.4
											c0.2-0.2,0-0.6,0.2-0.8c0.2-0.3,0.6-0.1,0.9-0.4c0.5-0.5,0.2-0.9,0.4-1.6c0.2-1.1,1.4-1.2,2.4-1.8c0.4-0.2,1.1-0.5,0.8-1
											c-0.3-0.5-0.9-0.1-1.5-0.2c0.1-0.9,0.3-1-0.8-1.1c-0.1-0.6,0.3-1,0.9-1c-0.1-0.2,0-0.5-0.1-0.7c1,0,0.7-1.3,0.8-1.8
											c0.1-0.4,0.3-0.6,0.3-1c0-0.4-0.1-0.8-0.1-1c0.1-0.7,0.6-3.5-0.7-3.9c-0.1-0.3-0.3-0.4-0.5-0.6l-0.6,0.1
											c0.8,1,0.4,1.1-0.1,2c-0.3,0.6,0.1,1.6-0.4,2.1c-0.2,0.3-0.8,0.4-1.1,0.6c-0.2,0.2-0.5,0.7-0.7,1c-0.1,0.3-0.2,0.8-0.4,1
											c-0.3,0.4-0.8,0.5-1.1,0.8c-0.8,0.7-0.5,1.3-0.3,2.1c0.1,0.6,0.2,1.4,0,2.2c-0.1,0.4-0.3,0.8-0.4,1.1c0,0-0.2,0.6-0.3,0.5
											c0,0.2,0.4,0.4,0.4,0.5c0,0.7-0.2,1.4-0.4,2.2C375.8,376.7,375.9,377.7,375.5,378.2z"/>
										<path class="st20" d="M319.7,394.5c-0.2-0.3-0.4-0.8-0.6-1.1c-0.4-0.6-0.9-1.3-1.4-1.8c-0.6-0.7-1.5-1.1-1.8-1.9
											c-0.3-0.7-0.3-1.8-1.2-2.1c0.1-0.7-0.5-1-0.4-1.8c-0.3,0-1-0.6-1.1-0.8c-0.3-0.5-0.3-0.7-0.5-1.3
											c-0.1-0.2-0.4-0.3-0.4-0.6c0,0,0.2-0.6,0.2-0.6c0.2-0.6,0-0.7,0.7-1c0.6-0.3,0.8,0.3,1-0.5c0.1-0.2-0.2-0.9-0.3-1.2
											c-0.4-0.9-0.4-1.5-1.5-1.6c-0.4-0.3-0.2-0.6-0.4-1c-0.2-0.6-0.5-1.2-0.6-1.9c-0.1-0.3,0-1-0.2-1.2
											c-0.2-0.3-0.6-0.2-0.8-0.4c-0.7-0.8-0.2-0.9,0.2-1.4c0.3-0.3,0.2-0.3,0.5-0.7c0,0-0.2-0.3-0.2-0.4
											c0.1-0.2,0.4-0.2,0.4-0.3c0.3-0.6,0.8-1.2,0.8-1.9c0.1-0.8-0.4-1.2-0.5-1.9c-0.1-0.8,0.3-1.1-0.6-1.8
											c-0.4-0.3-1.6-0.5-1.7-1c-0.7-0.1-1.6,0.8-1.6-0.4c-1-0.3-0.9,1-1.9,0.8c-0.2-0.6-0.9-2-1.5-2.2c-0.1-0.6,0.7-2.2-0.6-2
											c0-0.3,0-0.7,0-1c-0.3-0.2-0.2-0.1-0.3-0.4c-0.2-1.2,0.6-3-0.7-3.8c-0.6-0.3-1.2,0.2-1.8-0.3c-0.5-0.4-0.5-1.6-0.4-2.1
											c0.1-1,0-1.3-0.3-2.2c-0.3-0.8-0.1-1.4-0.3-2.2c-0.3-1.3-0.5-2.5-0.8-3.8c-2,13.4,1.1,27.5,9.7,39.3
											c3.1,4.3,6.8,8,10.8,11c0.4,0,0.7,0,1.1,0C320.4,394.9,320,394.8,319.7,394.5z"/>
										<path class="st20" d="M384.1,392.5v-0.1c-0.2,0.4-0.2,0.7-0.6,1.1c-0.4,0.4-0.3,0.4-0.5,0.9c-0.1,0.3-0.1,0.3-0.3,0.6
											c0,0-0.3,0.5-0.3,0.4c-0.2,0.2-0.6,0.2-0.8,0.4c-0.4,0.4-0.3,0.5-0.8,0.8c-0.4,0.2-0.8,0.4-1.1,0.5c-1,0.2-0.9-1.1-1.8-1
											c-0.1,0.3-0.5,0.3-0.8,0.4c-0.3-0.5-0.6-0.2-1-0.2c-0.4,0.7-1,1.4-1.8,1.6c-0.6,0.1-0.5-0.1-1.1-0.2
											c-0.1,0-0.6,0.1-0.7,0.1c-0.3,0.2-0.2,0.3-0.4,0.5c-0.3,0.2-0.7,0.3-1.1,0.5c-0.4,0.2-0.7,0.6-1.1,0.8
											c-0.6,0.2-1.1,0.2-1.6,0.4c-0.4,0.2-1.1,0.2-1.4,0.5c-0.2-0.1-0.4-0.3-0.7-0.2c0,0.1,0,0.3,0,0.4c-0.3,0-0.5,0.3-0.7,0.5
											c-0.2,0.1-0.3,0-0.5,0.2c-0.2,0.1-0.2,0.2-0.3,0.4c0.4,0.1,0.2,0.2,0.2,0.5c0,0-0.4,0.6-0.4,0.6c-0.4,0.3-1.4,0.2-1.6-0.3
											c-0.3,0.3-0.7,0.3-0.9,0.6c-0.3-0.1-0.6-0.3-1-0.4c-0.6-0.1-0.7,0.2-1.2,0.4c-0.7,0.2-1.5-0.2-2.1-0.1
											c-0.1-0.6-0.6-0.5-0.5,0.1c-0.3,0-0.6,0-0.8,0.1c-0.3-0.1-0.7-0.2-0.9,0c-0.6-0.6-2.5,0.8-3,1.2c-0.1,0.1-0.1,0.3-0.2,0.5
											c-0.1,0.1-0.3,0.1-0.4,0.3c-0.2,0.2-0.4,0.4-0.6,0.6c-0.1,0.1-0.3,0.3-0.5,0.4c11.3,0.3,22.8-3,32.7-10.2
											c0.1-0.1,0.2-0.1,0.3-0.2c0-0.3,0-0.6,0.1-0.8c0.1-0.2,0.9-0.8,0.1-0.8c0.4-0.3,0.1-0.4,0.2-0.7
											C384.1,392.9,384.3,392.7,384.1,392.5z"/>
										<path class="st20" d="M330.7,310.8c0,0,1.2-0.6,1.3-0.6c0.4-0.3,0.1-1,0.9-0.9c0.5-0.8,0.9-1.3,1.4-2
											c0.2,0,0.3-0.2,0.5-0.3l0.5-0.5c-0.3,0.2-1.9,1-2.4,1.1c-0.4,0.1-0.7,0-1.1,0.1c-0.9,0.2-0.5,0.3-0.9,0.9
											C330.7,309.1,329.4,310.7,330.7,310.8z"/>
									</g>
									<g>
										<defs>
											<path id="SVGID_2_" d="M394.9,321.4c17.3,23.8,12.1,57.1-11.6,74.4c-23.8,17.3-57.1,12.1-74.4-11.6
												c-17.3-23.8-12.1-57.1,11.6-74.4C344.3,292.4,377.6,297.6,394.9,321.4z"/>
										</defs>
										<clipPath id="SVGID_3_">
											<use xlink:href="#SVGID_2_"  style="overflow:visible;"/>
										</clipPath>
										
											<radialGradient id="SVGID_4_" cx="181.368" cy="313.7025" r="45.8328" gradientTransform="matrix(0.8077 -0.5896 0.5896 0.8077 -92.57 192.8447)" gradientUnits="userSpaceOnUse">
											<stop  offset="0" style="stop-color:#FFFFFF"/>
											<stop  offset="0.2683" style="stop-color:#FBFBFB;stop-opacity:0.7317"/>
											<stop  offset="0.5196" style="stop-color:#F0F0F0;stop-opacity:0.4804"/>
											<stop  offset="0.7632" style="stop-color:#DEDEDD;stop-opacity:0.2368"/>
											<stop  offset="1" style="stop-color:#C4C4C3;stop-opacity:0"/>
										</radialGradient>
										<path class="st40" d="M282.1,317.9c14.9,20.5,10.5,49.2-10,64.1c-20.5,14.9-49.2,10.5-64.1-10
											c-14.9-20.5-10.5-49.2,10-64.1C238.5,293,267.2,297.5,282.1,317.9z"/>
										
											<radialGradient id="SVGID_5_" cx="183.8888" cy="319.5338" r="33.1732" gradientTransform="matrix(0.8077 -0.5896 0.5896 0.8077 -92.57 192.8447)" gradientUnits="userSpaceOnUse">
											<stop  offset="0" style="stop-color:#FFFFFF"/>
											<stop  offset="0.9607" style="stop-color:#C6C6C5;stop-opacity:3.934383e-02"/>
											<stop  offset="1" style="stop-color:#C4C4C3;stop-opacity:0"/>
										</radialGradient>
										<path class="st41" d="M278.3,320.7c13.4,18.3,9.4,44-9,57.4c-18.3,13.4-44,9.4-57.4-9c-13.4-18.3-9.4-44,9-57.4
											C239.2,298.4,264.9,302.4,278.3,320.7z"/>
									</g>
								</g>
							</g>
						</g>
						<path class="st42" d="M333.1,302.9c-8.1,4.2-14.2,10.7-16.8,19.1c-6.2,19.7,9.2,42.1,34.3,50c22.7,7.1,45.7,0,54.5-16
							c0.7-12-2.5-24.2-10.1-34.7C380.5,301.6,354.9,294.7,333.1,302.9z"/>
					</g>
				</g>
			</g>
		</g>
	</g>
	<text transform="matrix(1 0 0 1 204.6721 89.2635)"><tspan x="0" y="0" class="st24 st43 st44">WORLD</tspan><tspan x="-45.7" y="39.7" class="st24 st45 st46">BOOK DAY</tspan></text>
</g>
</svg>
